<svg version="1.1" xmlns="http://www.w3.org/2000/svg" xmlns:xlink="http://www.w3.org/1999/xlink" preserveAspectRatio="xMidYMid meet" viewBox="667 288 155 146">
  <g data-item-type="text" data-item="Business" id="logo__item--business" class="logo__item">
    <g class="logo__item__inner" transform="translate(670.609375 409.29350434835726) scale(1 1) rotate(0 0 0)">
      <text data-part-id="logo__item--business" dy="0" dominant-baseline="auto" alignment-baseline="auto" font-family="Dancing Script" font-size="32px" fill="#4141bf" letter-spacing="0" font-weight="bold" font-style="normal" data-font-family="Dancing Script" data-font-weight="bold" data-font-style="normal" data-ttf-url="/builder_assets/fontsttf/font-montserrat-bold-normal.ttf" data-font-filename="dancing-script-bold-normal">Stranger</text>
    </g>
  </g>
  <g data-item-type="text" id="logo__item--tagline_1" data-item="Tagline" class="logo__item">
    <g class="logo__item__inner" transform="translate(712.2578125 431.29350434835726) scale(0.7859807073954984 0.7859807073954984) rotate(0.06700973834928894 60.7421875 10)">
      <text dy="0" dominant-baseline="auto" alignment-baseline="auto" font-family="Open Sans" font-size="18px" fill="#bf41a6" letter-spacing="1" data-font-family="Open Sans" data-font-weight="bold" data-font-style="normal" font-weight="bold" font-style="normal" data-ttf-url="/builder_assets/fontsttf/font-open-sans-normal-normal.ttf" data-part-id="logo__item--tagline_1__0" data-font-filename="open-sans-bold-normal">Find a friend...</text>
    </g>
  </g>
  <g data-item-type="image" data-item="Image" data-logo-item="" id="logo__item--logo_0" class="logo__item">
    <g class="logo__item__inner" transform="translate(660.6112190742446 261) scale(1.489573034218631 1.489573034218631) rotate(0 0 0)">

      <g>
        <g>
          <g>
            <path fill="#81BF41" d="M65.281,20.793c0.882-0.249,1.785-0.464,2.716-0.396c-2.608,0.357-5.104,1.327-7.446,2.508     c-3.955,2.033-7.212,5.515-8.654,9.753c-1.082,3.192-1.183,6.652-0.63,9.957c0.983,6.687,3.753,13.105,3.564,19.945     c-0.129,5.959-3.194,11.746-8.018,15.234c-2.379,1.711-5.042,3.132-7.902,3.813c4.506-1.641,8.649-4.698,10.923-9.002     c2.136-3.935,2.676-8.598,1.951-12.978c-1.011-7.08-4.272-13.842-3.773-21.112c0.276-4.737,2.489-9.327,6.118-12.399     C57.28,23.369,61.245,21.725,65.281,20.793z" data-part-id="logo__item--logo_0__0"></path>
          </g>
          <g>
            <path fill="#F05B22" d="M56.684,28.077c3.433-4.152,8.563-6.962,13.947-7.395c-4.531,1.124-8.685,3.748-11.674,7.337     c-2.429,2.911-3.928,6.662-3.813,10.483c0.064,5.636,2.544,10.861,3.275,16.396c0.751,5.422-0.158,11.165-3.009,15.886     c-0.98,1.532-2.103,3.041-3.611,4.1c2.816-3.693,4.346-8.271,4.574-12.889c0.276-3.774-0.435-7.518-1.28-11.176     c-0.791-3.124-1.859-6.185-2.331-9.381C52.115,36.682,53.631,31.752,56.684,28.077z" data-part-id="logo__item--logo_0__1"></path>
          </g>
          <g>
            <path fill="#2E97D4" d="M49.595,27.759c2.876-2.859,6.559-4.871,10.451-5.958c-4.336,1.644-8.406,4.432-10.768,8.505     c-2.796,4.72-3.133,10.486-2.217,15.79c0.991,5.623,3.15,11.021,3.585,16.747c0.26,3.767-0.59,7.638-2.708,10.791     c-2.948,4.581-7.975,7.396-13.139,8.77c-1.63,0.391-3.261,0.893-4.95,0.902c3.534-0.472,6.979-1.738,9.994-3.642     c3.972-2.522,6.923-6.694,7.681-11.36c0.728-3.878,0.034-7.833-0.846-11.626c-1.185-5.121-2.856-10.234-2.742-15.554     C44.01,36.159,46.088,31.269,49.595,27.759z" data-part-id="logo__item--logo_0__2"></path>
          </g>
          <g>
            <path fill="#E4278F" d="M62.356,26.435c3.406-3.081,8.079-4.688,12.657-4.376c2.436,0.177,4.889,0.686,7.108,1.721     c-4.296-0.783-8.856-0.722-12.94,0.972c-6.077,2.404-10.646,7.865-12.519,14.064C56.502,34.083,58.887,29.543,62.356,26.435z" data-part-id="logo__item--logo_0__3"></path>
            <path fill="#E4278F" d="M26.013,80.122c6.972-1.351,12.955-6.594,15.494-13.189c-0.072,3.585-1.885,6.934-4.276,9.517     c-2.836,3.043-6.767,5.077-10.917,5.488c-4.074,0.441-8.23-0.626-11.776-2.62C18.249,80.375,22.188,80.924,26.013,80.122z" data-part-id="logo__item--logo_0__4"></path>
          </g>
          <g>
            <path fill="#4E4E4F" d="M72.376,25.287c5.46-1.424,11.292-0.644,16.501,1.386c-4.106-0.534-8.268-1.036-12.407-0.499     c-3.615,0.426-7.2,1.514-10.279,3.485c-1.657,1.011-3.143,2.271-4.676,3.46C63.806,29.122,67.942,26.362,72.376,25.287z" data-part-id="logo__item--logo_0__5"></path>
            <path fill="#4E4E4F" d="M31.628,74.899c1.55-0.771,2.94-1.812,4.447-2.654c-2.456,3.386-6.34,5.582-10.4,6.425     c-5.885,1.187-12.115-0.05-17.358-2.874c4.233,1.064,8.572,1.938,12.965,1.749C24.867,77.424,28.442,76.564,31.628,74.899z" data-part-id="logo__item--logo_0__6"></path>
          </g>
          <g>
            <path fill="#92278E" d="M40.521,39.68c0.928-4.142,2.908-8.23,6.281-10.92c-1.752,2.478-3.167,5.215-3.866,8.183     c-1.083,4.266-0.949,8.753-0.058,13.045c0.807,4.837,2.967,9.405,3.139,14.355c0.142,3.516-1.065,6.987-3.049,9.86     c-3.296,5.01-8.985,8.314-14.939,8.836c5.237-1.41,10.058-4.661,12.991-9.268c1.732-2.694,2.585-5.923,2.444-9.125     c-0.074-3.875-1.619-7.491-2.426-11.236C39.954,48.936,39.465,44.211,40.521,39.68z" data-part-id="logo__item--logo_0__7"></path>
          </g>
        </g>
        <g>
          <g>
            <path fill="#81BF41" d="M65.281,20.793c0.882-0.249,1.785-0.464,2.716-0.396c-2.608,0.357-5.104,1.327-7.446,2.508     c-3.955,2.033-7.212,5.515-8.654,9.753c-1.082,3.192-1.183,6.652-0.63,9.957c0.983,6.687,3.753,13.105,3.564,19.945     c-0.129,5.959-3.194,11.746-8.018,15.234c-2.379,1.711-5.042,3.132-7.902,3.813c4.506-1.641,8.649-4.698,10.923-9.002     c2.136-3.935,2.676-8.598,1.951-12.978c-1.011-7.08-4.272-13.842-3.773-21.112c0.276-4.737,2.489-9.327,6.118-12.399     C57.28,23.369,61.245,21.725,65.281,20.793z" data-part-id="logo__item--logo_0__8"></path>
          </g>
          <g>
            <path fill="#F05B22" d="M56.684,28.077c3.433-4.152,8.563-6.962,13.947-7.395c-4.531,1.124-8.685,3.748-11.674,7.337     c-2.429,2.911-3.928,6.662-3.813,10.483c0.064,5.636,2.544,10.861,3.275,16.396c0.751,5.422-0.158,11.165-3.009,15.886     c-0.98,1.532-2.103,3.041-3.611,4.1c2.816-3.693,4.346-8.271,4.574-12.889c0.276-3.774-0.435-7.518-1.28-11.176     c-0.791-3.124-1.859-6.185-2.331-9.381C52.115,36.682,53.631,31.752,56.684,28.077z" data-part-id="logo__item--logo_0__9"></path>
          </g>
          <g>
            <path fill="#2E97D4" d="M49.595,27.759c2.876-2.859,6.559-4.871,10.451-5.958c-4.336,1.644-8.406,4.432-10.768,8.505     c-2.796,4.72-3.133,10.486-2.217,15.79c0.991,5.623,3.15,11.021,3.585,16.747c0.26,3.767-0.59,7.638-2.708,10.791     c-2.948,4.581-7.975,7.396-13.139,8.77c-1.63,0.391-3.261,0.893-4.95,0.902c3.534-0.472,6.979-1.738,9.994-3.642     c3.972-2.522,6.923-6.694,7.681-11.36c0.728-3.878,0.034-7.833-0.846-11.626c-1.185-5.121-2.856-10.234-2.742-15.554     C44.01,36.159,46.088,31.269,49.595,27.759z" data-part-id="logo__item--logo_0__10"></path>
          </g>
          <g>
            <path fill="#E4278F" d="M62.356,26.435c3.406-3.081,8.079-4.688,12.657-4.376c2.436,0.177,4.889,0.686,7.108,1.721     c-4.296-0.783-8.856-0.722-12.94,0.972c-6.077,2.404-10.646,7.865-12.519,14.064C56.502,34.083,58.887,29.543,62.356,26.435z" data-part-id="logo__item--logo_0__11"></path>
            <path fill="#E4278F" d="M26.013,80.122c6.972-1.351,12.955-6.594,15.494-13.189c-0.072,3.585-1.885,6.934-4.276,9.517     c-2.836,3.043-6.767,5.077-10.917,5.488c-4.074,0.441-8.23-0.626-11.776-2.62C18.249,80.375,22.188,80.924,26.013,80.122z" data-part-id="logo__item--logo_0__12"></path>
          </g>
          <g>
            <path fill="#4E4E4F" d="M72.376,25.287c5.46-1.424,11.292-0.644,16.501,1.386c-4.106-0.534-8.268-1.036-12.407-0.499     c-3.615,0.426-7.2,1.514-10.279,3.485c-1.657,1.011-3.143,2.271-4.676,3.46C63.806,29.122,67.942,26.362,72.376,25.287z" data-part-id="logo__item--logo_0__13"></path>
            <path fill="#4E4E4F" d="M31.628,74.899c1.55-0.771,2.94-1.812,4.447-2.654c-2.456,3.386-6.34,5.582-10.4,6.425     c-5.885,1.187-12.115-0.05-17.358-2.874c4.233,1.064,8.572,1.938,12.965,1.749C24.867,77.424,28.442,76.564,31.628,74.899z" data-part-id="logo__item--logo_0__14"></path>
          </g>
          <g>
            <path fill="#92278E" d="M40.521,39.68c0.928-4.142,2.908-8.23,6.281-10.92c-1.752,2.478-3.167,5.215-3.866,8.183     c-1.083,4.266-0.949,8.753-0.058,13.045c0.807,4.837,2.967,9.405,3.139,14.355c0.142,3.516-1.065,6.987-3.049,9.86     c-3.296,5.01-8.985,8.314-14.939,8.836c5.237-1.41,10.058-4.661,12.991-9.268c1.732-2.694,2.585-5.923,2.444-9.125     c-0.074-3.875-1.619-7.491-2.426-11.236C39.954,48.936,39.465,44.211,40.521,39.68z" data-part-id="logo__item--logo_0__15"></path>
          </g>
        </g>
      </g>

    </g>
  </g>
</svg>
